<svg xmlns="http://www.w3.org/2000/svg" viewBox="0 0 451.6 451.6"><path d="M426.8 119H24.4c-10 0-18.4 8.4-18.4 18.4v140.8c0 10 8.4 18.4 18.4 18.4H427.2c10 0 18.4-8.4 18.4-18.4V137.4c-.4-10-8.8-18.4-18.8-18.4z" fill="#ffce57"/><path d="M32.8 278.2V137.4c0-10 8.4-18.4 18.4-18.4H24.4c-10 0-18.4 8.4-18.4 18.4v140.8c0 10 8.4 18.4 18.4 18.4h26.8c-10 0-18.4-8.4-18.4-18.4z" fill="#ffd985"/><path d="M8 148.6s-3.2-29.2 20.4-29.2H430s14.4 2.4 14.4 29.2v126.8L434 265s-7.2-57.6-60.4-57.6H5.6L8 148.6z" fill="#a7d9e8"/><path d="M8 148.6s-3.2-29.2 20.4-29.2H430s14.4 2.4 14.4 29.2v126.8L434 265s-7.2-57.6-60.4-57.6H5.6L8 148.6z" fill="#a7d9e8"/><path d="M32.8 137.4c0-8.8 6.4-16.4 14.8-18H28.8c-23.6 0-20.4 29.2-20.4 29.2L6 207.8h26.8v-70.4z" fill="#c3dfe5"/><path d="M426.8 112.6h-402C11.2 112.6 0 123.8 0 137.4v140.8C0 291.8 11.2 303 24.8 303h54.8c2.8 20.4 20.4 36 41.2 36 21.2 0 38.4-15.6 41.2-36h178c4 18.8 20.8 32.8 40.8 32.8s36.8-14 40.8-32.8h5.2c13.6 0 24.8-11.2 24.8-24.8V137.4c-.4-13.6-11.2-24.8-24.8-24.8zm12 24.8v121.2c-4-17.2-10.8-30.8-21.2-40.8-11.2-10.8-23.2-14.4-30.4-15.6v-76.8h39.6c6.4 0 12 5.2 12 12zm-75.6-12h11.2v76h-51.6v-64c0-6.8 5.6-12 12-12h28.4zm-226 76v-76h49.6v76h-49.6zm-62.4 0v-76h49.6v76H74.8zm124.4-76h49.6v76h-49.6v-76zm62.4 0h51.6c-2 3.6-3.2 7.6-3.2 12v64h-48.4v-76zm-237.2 0H62v76H12.4v-64c0-6.8 5.6-12 12-12zm-12 152.8v-64H310v64c0 4.4 1.2 8.4 3.2 12H161.6c-3.2-19.6-20.4-34.8-41.2-34.8s-38 15.2-41.2 34.8H24.4c-6.4 0-12-5.2-12-12zm410 12c-2-21.2-19.6-38-41.6-38-21.6 0-39.6 16.8-41.6 38h-4.4c-6.8 0-12-5.6-12-12v-64h58s14.8-.4 28 12.4 20.4 34.4 20.8 63.2c-.8.4-2 .4-2.8.4h-4.4z" fill="#424953"/><g fill="#e6e9ee"><circle cx="120.4" cy="297.4" r="18.4"/><circle cx="380.8" cy="293.8" r="18.4"/></g></svg>
